<svg style="width: 0; height: 0; position: absolute">
   <linearGradient id="paint0_linear" x1="15.294" y1="15.294" x2="15.294" y2="27.059" gradientUnits="userSpaceOnUse"><stop stop-color="#BC9CFF"/><stop offset="1" stop-color="#8BA4F9"/></linearGradient><linearGradient id="paint1_linear" x1="26.029" y1="15.294" x2="26.029" y2="21.206" gradientUnits="userSpaceOnUse"><stop stop-color="#6FCF97"/><stop offset="1" stop-color="#66D2EA"/></linearGradient><linearGradient id="paint2_linear" x1="20" y1="0" x2="20" y2="40" gradientUnits="userSpaceOnUse"><stop stop-color="#BC9CFF"/><stop offset="1" stop-color="#8BA4F9"/></linearGradient>
   <linearGradient id="paint0_linear" x1="9" y1="-13.8779" x2="9" y2="29.7248" gradientUnits="userSpaceOnUse"><stop stop-color="#BC9CFF"/><stop offset="1" stop-color="#8BA4F9"/></linearGradient>
   <linearGradient id="paint0_linear" x1="11" y1="-0.575684" x2="11" y2="23.2076" gradientUnits="userSpaceOnUse"><stop stop-color="#BC9CFF"/><stop offset="1" stop-color="#8BA4F9"/></linearGradient>
</svg>

<svg class="svg-icon" xmlns="http://www.w3.org/2000/svg" style="display:none">
  <symbol id="pick" fill="none">
    <path d="M62.335 13.368c.222 0 .402.076.542.228.152.14.228.32.228.542a.74.74 0 01-.227.543.705.705 0 01-.543.227h-3.763v10.5a.761.761 0 01-.227.56c-.14.14-.32.21-.542.21-.21 0-.391-.07-.543-.21a.761.761 0 01-.227-.56v-10.5H53.27a.74.74 0 01-.543-.227.74.74 0 01-.227-.543c0-.221.076-.402.227-.542a.74.74 0 01.543-.228h9.065zM68.908 13.368c.886 0 1.72.17 2.502.508.794.338 1.482.799 2.065 1.382a6.343 6.343 0 011.4 2.065c.338.782.508 1.616.508 2.503a6.259 6.259 0 01-.665 2.87 6.498 6.498 0 01-1.803 2.205l-.035.035c-.56.42-1.172.752-1.837.997a6.403 6.403 0 01-2.135.35c-.887 0-1.721-.169-2.503-.507a6.753 6.753 0 01-2.065-1.383 6.538 6.538 0 01-1.382-2.047 6.276 6.276 0 01-.508-2.52c0-.98.198-1.884.595-2.713.397-.84.94-1.557 1.628-2.152l.07-.07c.011 0 .029-.012.052-.035a6.334 6.334 0 011.89-1.085c.7-.269 1.44-.403 2.223-.403zm0 11.375c.443 0 .863-.052 1.26-.157a5.584 5.584 0 001.155-.473l-6.143-7.472a4.916 4.916 0 00-.875 1.47 4.664 4.664 0 00-.315 1.715c0 .677.128 1.312.385 1.907s.607 1.12 1.05 1.575c.455.444.98.794 1.575 1.05.595.257 1.231.385 1.908.385zm3.622-1.592c.408-.444.724-.945.945-1.505.234-.572.35-1.178.35-1.82a4.813 4.813 0 00-1.453-3.465 4.813 4.813 0 00-3.464-1.453c-.467 0-.916.065-1.348.193a4.462 4.462 0 00-1.207.525l6.177 7.525zM82.351 20.63a.762.762 0 01-.595-.28l-4.498-5.774a.714.714 0 01-.157-.543.722.722 0 01.28-.507.658.658 0 01.543-.14c.21.023.379.117.507.28l3.92 5.005 3.832-4.918a.709.709 0 01.49-.28c.21-.023.397.03.56.158a.721.721 0 01.28.507.713.713 0 01-.157.543l-4.41 5.67a.73.73 0 01-.595.28zm4.918 5.636a1.572 1.572 0 01-.56-.105 3.865 3.865 0 01-.42-.228 2.376 2.376 0 01-.42-.42l-3.518-4.532-3.832 4.935a.721.721 0 01-.508.28.714.714 0 01-.542-.158.709.709 0 01-.28-.49.741.741 0 01.157-.56l4.41-5.67a.682.682 0 01.578-.28c.256 0 .46.094.612.28l4.095 5.25c.058.082.11.134.157.158l.106.052c.198 0 .361.07.49.21.14.129.215.292.227.49a.657.657 0 01-.175.543.744.744 0 01-.525.245h-.052zM91.734 26.266a.761.761 0 01-.56-.228.761.761 0 01-.227-.56V14.103c0-.21.076-.39.227-.542a.761.761 0 01.56-.228c.21 0 .391.076.543.228a.74.74 0 01.227.542v11.375a.761.761 0 01-.227.56.74.74 0 01-.543.228zM104.938 26.23a.685.685 0 01-.595-.297l-7.298-9.59v9.135a.74.74 0 01-.227.543.712.712 0 01-.525.21.75.75 0 01-.753-.753V14.121c0-.164.047-.31.14-.438a.697.697 0 01.385-.262.678.678 0 01.455-.018.79.79 0 01.385.263l7.28 9.607v-9.152c0-.199.07-.373.21-.525a.742.742 0 01.543-.228c.21 0 .385.076.525.228a.723.723 0 01.227.525v11.357c0 .164-.047.31-.14.438a.799.799 0 01-.367.28 1.492 1.492 0 01-.245.035z" fill="#1F2041"/><path d="M20 27.059a1.18 1.18 0 01-1.177-1.177c0-4.529-3.706-8.235-8.235-8.235a1.18 1.18 0 01-1.176-1.176c0-.647.529-1.177 1.176-1.177a10.582 10.582 0 0110.588 10.588A1.18 1.18 0 0120 27.06z" fill="url(#paint0_linear)"/><path d="M30.588 16.47a1.18 1.18 0 01-1.176 1.177 8.21 8.21 0 00-6.765 3.559 12.037 12.037 0 00-1.176-2.294 10.49 10.49 0 017.94-3.618c.648 0 1.177.53 1.177 1.177z" fill="url(#paint1_linear)"/><path d="M20 40C8.97 40 0 31.03 0 20S8.97 0 20 0s20 8.97 20 20-8.97 20-20 20zm0-37.647C10.265 2.353 2.353 10.265 2.353 20S10.265 37.647 20 37.647 37.647 29.735 37.647 20 29.735 2.353 20 2.353z" fill="url(#paint2_linear)"/>
  </symbol>

  <symbol id="arrow-big">
    <path d="M8.36252 0.984375L16.3781 9L8.36252 17.0156L6.95627 15.6094L12.5344 9.98438H0.346894V8.01562H12.5344L6.95627 2.39062L8.36252 0.984375Z"/>
  </symbol>

  <symbol id="twit">
    <path d="M21.5156 5.54932C21.5469 5.67432 21.5625 5.87744 21.5625 6.15869C21.5625 8.40869 21.0156 10.5806 19.9219 12.6743C18.7969 14.8931 17.2188 16.6587 15.1875 17.9712C12.9688 19.4399 10.4219 20.1743 7.54688 20.1743C4.79688 20.1743 2.28125 19.4399 0 17.9712C0.34375 18.0024 0.734375 18.0181 1.17188 18.0181C3.45312 18.0181 5.5 17.3149 7.3125 15.9087C6.21875 15.9087 5.25 15.5962 4.40625 14.9712C3.59375 14.3149 3.03125 13.5024 2.71875 12.5337C3.03125 12.5649 3.32812 12.5806 3.60938 12.5806C4.04688 12.5806 4.48438 12.5337 4.92188 12.4399C3.79688 12.1899 2.85938 11.6118 2.10938 10.7056C1.35938 9.79932 0.984375 8.76807 0.984375 7.61182V7.51807C1.67188 7.92432 2.40625 8.14307 3.1875 8.17432C2.53125 7.70557 2 7.11182 1.59375 6.39307C1.1875 5.67432 0.984375 4.89307 0.984375 4.04932C0.984375 3.17432 1.21875 2.34619 1.6875 1.56494C2.90625 3.09619 4.39062 4.31494 6.14062 5.22119C7.92188 6.12744 9.8125 6.62744 11.8125 6.72119C11.75 6.34619 11.7188 5.97119 11.7188 5.59619C11.7188 4.72119 11.9375 3.90869 12.375 3.15869C12.8125 2.37744 13.4062 1.76807 14.1562 1.33057C14.9062 0.893066 15.7188 0.674316 16.5938 0.674316C17.3125 0.674316 17.9688 0.814941 18.5625 1.09619C19.1875 1.37744 19.7344 1.75244 20.2031 2.22119C21.3281 2.00244 22.375 1.61182 23.3438 1.04932C22.9688 2.20557 22.25 3.11182 21.1875 3.76807C22.125 3.64307 23.0625 3.37744 24 2.97119C23.3125 3.97119 22.4844 4.83057 21.5156 5.54932Z" fill="url(#paint0_linear)"/>
  </symbol>

  <symbol id="face">
    <path d="M21.5 3.17432V19.6743C21.5 20.2993 21.2812 20.8306 20.8438 21.2681C20.4062 21.7056 19.875 21.9243 19.25 21.9243H15.2656V13.6274H18.0781L18.5 10.4399H15.2656V8.42432C15.2656 7.92432 15.3594 7.54932 15.5469 7.29932C15.7969 7.01807 16.2188 6.87744 16.8125 6.87744H18.5V4.06494C17.8438 3.97119 17.0312 3.92432 16.0625 3.92432C14.8125 3.92432 13.8125 4.29932 13.0625 5.04932C12.3438 5.76807 11.9844 6.78369 11.9844 8.09619V10.4399H9.125V13.6274H11.9844V21.9243H2.75C2.125 21.9243 1.59375 21.7056 1.15625 21.2681C0.71875 20.8306 0.5 20.2993 0.5 19.6743V3.17432C0.5 2.54932 0.71875 2.01807 1.15625 1.58057C1.59375 1.14307 2.125 0.924316 2.75 0.924316H19.25C19.875 0.924316 20.4062 1.14307 20.8438 1.58057C21.2812 2.01807 21.5 2.54932 21.5 3.17432Z" fill="url(#paint0_linear)"/>
  </symbol>

  <symbol id="insta">
    <path d="M11 6.03369C10.0312 6.03369 9.125 6.28369 8.28125 6.78369C7.46875 7.25244 6.8125 7.90869 6.3125 8.75244C5.84375 9.56494 5.60938 10.4556 5.60938 11.4243C5.60938 12.3931 5.84375 13.2993 6.3125 14.1431C6.8125 14.9556 7.46875 15.6118 8.28125 16.1118C9.125 16.5806 10.0312 16.8149 11 16.8149C11.9688 16.8149 12.8594 16.5806 13.6719 16.1118C14.5156 15.6118 15.1719 14.9556 15.6406 14.1431C16.1406 13.2993 16.3906 12.3931 16.3906 11.4243C16.3906 10.4556 16.1406 9.56494 15.6406 8.75244C15.1719 7.90869 14.5156 7.25244 13.6719 6.78369C12.8594 6.28369 11.9688 6.03369 11 6.03369ZM11 14.9399C10.0312 14.9399 9.20312 14.5962 8.51562 13.9087C7.82812 13.2212 7.48438 12.3931 7.48438 11.4243C7.48438 10.4556 7.82812 9.62744 8.51562 8.93994C9.20312 8.25244 10.0312 7.90869 11 7.90869C11.9688 7.90869 12.7969 8.25244 13.4844 8.93994C14.1719 9.62744 14.5156 10.4556 14.5156 11.4243C14.5156 12.3931 14.1719 13.2212 13.4844 13.9087C12.7969 14.5962 11.9688 14.9399 11 14.9399ZM17.8906 5.79932C17.8594 6.14307 17.7188 6.43994 17.4688 6.68994C17.25 6.93994 16.9688 7.06494 16.625 7.06494C16.2812 7.06494 15.9844 6.93994 15.7344 6.68994C15.4844 6.43994 15.3594 6.14307 15.3594 5.79932C15.3594 5.45557 15.4844 5.15869 15.7344 4.90869C15.9844 4.65869 16.2812 4.53369 16.625 4.53369C16.9688 4.53369 17.2656 4.65869 17.5156 4.90869C17.7656 5.15869 17.8906 5.45557 17.8906 5.79932ZM21.4531 7.06494C21.3906 6.15869 21.25 5.37744 21.0312 4.72119C20.75 3.93994 20.3125 3.26807 19.7188 2.70557C19.1562 2.11182 18.4844 1.67432 17.7031 1.39307C17.0469 1.17432 16.2656 1.04932 15.3594 1.01807C14.4844 0.955566 13.0312 0.924316 11 0.924316C8.96875 0.924316 7.5 0.955566 6.59375 1.01807C5.71875 1.04932 4.95312 1.17432 4.29688 1.39307C3.51562 1.67432 2.82812 2.11182 2.23438 2.70557C1.67188 3.26807 1.25 3.93994 0.96875 4.72119C0.75 5.37744 0.609375 6.15869 0.546875 7.06494C0.515625 7.93994 0.5 9.39307 0.5 11.4243C0.5 13.4556 0.515625 14.9243 0.546875 15.8306C0.609375 16.7056 0.75 17.4712 0.96875 18.1274C1.25 18.9087 1.67188 19.5962 2.23438 20.1899C2.82812 20.7524 3.51562 21.1587 4.29688 21.4087C4.95312 21.6587 5.71875 21.7993 6.59375 21.8306C7.5 21.8931 8.96875 21.9243 11 21.9243C13.0312 21.9243 14.4844 21.8931 15.3594 21.8306C16.2656 21.7993 17.0469 21.6743 17.7031 21.4556C18.4844 21.1743 19.1562 20.7524 19.7188 20.1899C20.3125 19.5962 20.75 18.9087 21.0312 18.1274C21.25 17.4712 21.375 16.7056 21.4062 15.8306C21.4688 14.9243 21.5 13.4556 21.5 11.4243C21.5 9.39307 21.4844 7.93994 21.4531 7.06494ZM19.2031 17.6118C18.8281 18.5493 18.1562 19.2212 17.1875 19.6274C16.6875 19.8149 15.8438 19.9399 14.6562 20.0024C14 20.0337 13.0312 20.0493 11.75 20.0493H10.25C9 20.0493 8.03125 20.0337 7.34375 20.0024C6.1875 19.9399 5.34375 19.8149 4.8125 19.6274C3.875 19.2524 3.20312 18.5806 2.79688 17.6118C2.60938 17.0806 2.48438 16.2368 2.42188 15.0806C2.39062 14.3931 2.375 13.4243 2.375 12.1743V10.6743C2.375 9.42432 2.39062 8.45557 2.42188 7.76807C2.48438 6.58057 2.60938 5.73682 2.79688 5.23682C3.17188 4.26807 3.84375 3.59619 4.8125 3.22119C5.34375 3.03369 6.1875 2.90869 7.34375 2.84619C8.03125 2.81494 9 2.79932 10.25 2.79932H11.75C13 2.79932 13.9688 2.81494 14.6562 2.84619C15.8438 2.90869 16.6875 3.03369 17.1875 3.22119C18.1562 3.59619 18.8281 4.26807 19.2031 5.23682C19.3906 5.73682 19.5156 6.58057 19.5781 7.76807C19.6094 8.42432 19.625 9.39307 19.625 10.6743V12.1743C19.625 13.4243 19.6094 14.3931 19.5781 15.0806C19.5156 16.2368 19.3906 17.0806 19.2031 17.6118Z" fill="url(#paint0_linear)"/>
  </symbol>

  <symbol id='rec-close'>
    <path d="M28.228,23.986L47.092,5.122c1.172-1.171,1.172-3.071,0-4.242c-1.172-1.172-3.07-1.172-4.242,0L23.986,19.744L5.121,0.88
    c-1.172-1.172-3.07-1.172-4.242,0c-1.172,1.171-1.172,3.071,0,4.242l18.865,18.864L0.879,42.85c-1.172,1.171-1.172,3.071,0,4.242
    C1.465,47.677,2.233,47.97,3,47.97s1.535-0.293,2.121-0.879l18.865-18.864L42.85,47.091c0.586,0.586,1.354,0.879,2.121,0.879
    s1.535-0.293,2.121-0.879c1.172-1.171,1.172-3.071,0-4.242L28.228,23.986z"/>
  </symbol>
</svg>